# xmcd
#
# Track frame offsets:
#	150
#	14580
#	27012
#	39849
#	57410
#	67763
#	81329
#	96110
#	111674
#	127426
#	139642
#	159685
#	175600
#	188598
#	203189
#	214002
#	225354
#	241510
#	255237
#	273824
#	290629
#	305976
#
# Disc length: 4304 seconds
#
# Revision: 1
# Processed by: cddbd v1.5PL3 Copyright (c) Steve Scherf et al.
# Submitted via: EasyCDDAExtractor 6.2.0.3
#
DISCID=3110ce16
DTITLE=Barreirito - As 20 Mais
DYEAR=2004
DGENRE=Sertanejo
TTITLE0=Onde Estão Os Meus Pássaros
TTITLE1=Cadeira Amiga
TTITLE2=Um Ombro Pra Chorar
TTITLE3=Morto Por Dentro
TTITLE4=Você É Minha Razão
TTITLE5=O Cantor Das Andorinhas
TTITLE6=O Outro
TTITLE7=Luz Acesa
TTITLE8=Desculpas
TTITLE9=Meu Dia De Sol
TTITLE10=Juventude Que Perdi
TTITLE11=Amanhã
TTITLE12=Vestido Colado
TTITLE13=Cigarro, Whisk e Gelo
TTITLE14=Devolva Meus Passos
TTITLE15=O Filho Do Carreteiro
TTITLE16=Amarremos
TTITLE17=Esta Noite
TTITLE18=Disque 0 (9)
TTITLE19=Hipocrista
TTITLE20=O Menino Da Canôa
TTITLE21=Boleros Da Saudade
EXTD=
EXTT0=
EXTT1=
EXTT2=
EXTT3=
EXTT4=
EXTT5=
EXTT6=
EXTT7=
EXTT8=
EXTT9=
EXTT10=
EXTT11=
EXTT12=
EXTT13=
EXTT14=
EXTT15=
EXTT16=
EXTT17=
EXTT18=
EXTT19=
EXTT20=
EXTT21=
PLAYORDER=
